<svg width="206" height="180" viewBox="0 0 206 180" fill="none" xmlns="http://www.w3.org/2000/svg">
<path fill-rule="evenodd" clip-rule="evenodd" d="M80.2146 11.2125C87.8156 12.5453 95.3784 14.1528 102.892 16.0327C110.405 14.1527 117.968 12.5452 125.569 11.2125C119.164 14.1177 112.656 17.5979 105.788 21.422C104.92 21.9065 104.188 22.6628 103.676 23.6044C103.164 24.546 102.892 25.6348 102.892 26.7462C102.892 24.4754 101.77 22.4062 99.9955 21.422C93.1275 17.5979 86.6196 14.1117 80.2146 11.2125ZM102.892 159.281C102.892 162.707 105.325 165.209 108.036 165.251V166.419C140.288 160.128 163.073 159.731 195.495 166.288V26.6632C192.079 25.7619 188.649 24.9377 185.205 24.1908V12.1374C190.484 13.2283 196.009 14.5801 201.889 16.2165C203.001 16.5279 203.99 17.2616 204.697 18.2994C205.403 19.3373 205.786 20.6188 205.784 21.9379V173.356C205.784 177.109 202.784 179.907 199.59 179.207C163.186 171.204 140.298 171.678 103.88 179.296C103.227 179.435 102.557 179.435 101.904 179.296C65.4856 171.678 42.5973 171.204 6.19421 179.207C5.44354 179.375 4.67012 179.349 3.92892 179.133C3.18774 178.917 2.49696 178.515 1.90569 177.957C1.31441 177.398 0.837128 176.696 0.507797 175.901C0.178452 175.106 0.00512695 174.237 0.000137329 173.356V21.9438C-0.00335693 20.6237 0.378983 19.3408 1.08549 18.3018C1.79201 17.2627 2.78154 16.5282 3.89459 16.2165C9.41959 14.6666 14.9834 13.3063 20.5785 12.1374V24.1908C17.2654 24.9023 13.8494 25.7323 10.2893 26.6632V166.288C42.7105 159.731 65.4959 160.122 97.7473 166.419V165.251C100.459 165.203 102.892 162.701 102.892 159.281Z" fill="url(#paint0_linear_203_2098)"/>
<path fill-rule="evenodd" clip-rule="evenodd" d="M181.394 14.3352V143.295C181.385 143.313 181.373 143.329 181.357 143.34C181.318 143.374 181.272 143.399 181.223 143.412C181.175 143.424 181.124 143.426 181.074 143.415C152.585 137.81 131.175 144.673 106.836 156.741C106.822 156.747 106.808 156.751 106.793 156.752H106.783C106.76 156.75 106.738 156.742 106.719 156.729C106.713 156.726 106.708 156.722 106.703 156.718V28.868C133.272 15.1187 153.3 6.67701 181.394 14.3352ZM184.201 3.29688C152.089 -5.51661 128.998 4.62377 102.05 18.5732C100.246 19.509 98.7239 20.9713 97.6594 22.7922C96.5949 24.6132 96.031 26.719 96.0324 28.868V156.707C96.0324 165.211 104.286 170.593 111.312 167.116C134.68 155.534 153.726 149.66 179.148 154.665C185.604 155.94 192.065 150.781 192.065 143.295V14.2494C192.065 9.21639 188.954 4.60089 184.201 3.29688Z" fill="url(#paint1_linear_203_2098)"/>
<path fill-rule="evenodd" clip-rule="evenodd" d="M24.2334 14.3345V143.287C24.2431 143.307 24.2577 143.323 24.2754 143.333C24.3134 143.366 24.3574 143.39 24.4046 143.403C24.4518 143.416 24.501 143.417 24.5488 143.407C52.622 137.803 73.7137 144.666 97.7021 156.733C97.7156 156.739 97.7298 156.743 97.7442 156.744H97.7547C97.7771 156.742 97.7987 156.734 97.8178 156.721L97.8336 156.698V28.8608C71.6529 15.1122 51.9176 6.67095 24.2334 14.3345ZM21.4681 3.29671C53.1109 -5.51633 75.8639 4.62353 102.418 18.5723C104.195 19.509 105.694 20.9715 106.743 22.7921C107.792 24.6128 108.348 26.718 108.348 28.8665V156.71C108.348 165.214 100.215 170.596 93.2914 167.113C70.265 155.532 51.497 149.658 26.4466 154.662C20.0855 155.932 13.7191 150.779 13.7191 143.287V14.2487C13.7092 11.7462 14.4655 9.31136 15.8686 7.32828C17.2717 5.3452 19.2418 3.92676 21.4681 3.29671ZM171.381 120.114C152.087 119.896 141.326 122.013 120.849 131.112L116.875 120.52C138.571 110.883 150.721 108.441 171.486 108.676L171.381 120.114ZM171.381 97.2376C152.087 97.0203 141.326 99.1364 120.849 108.235L116.875 97.6437C138.571 88.0071 150.721 85.5651 171.486 85.7996L171.381 97.2376ZM171.381 74.3615C152.087 74.1442 141.326 76.2602 120.849 85.3592L116.875 74.7675C138.571 65.131 150.721 62.6889 171.486 62.9234L171.381 74.3615ZM158.291 28.592V45.7491H168.805V28.592H158.291ZM139.891 34.3111V51.4682H150.405V34.3111H139.891ZM121.491 40.0301V57.1872H132.005V40.0301H121.491Z" fill="url(#paint2_linear_203_2098)"/>
<path fill-rule="evenodd" clip-rule="evenodd" d="M34.4031 123.725C53.7902 123.511 64.6037 125.594 85.1794 134.55L89.1731 124.124C67.3718 114.639 55.1637 112.235 34.2975 112.466L34.4031 123.725ZM34.4031 101.207C53.7902 100.993 64.6037 103.076 85.1794 112.032L89.1731 101.607C67.3718 92.1213 55.1637 89.7175 34.2975 89.9483L34.4031 101.207ZM34.4031 78.6896C53.7902 78.4756 64.6037 80.5585 85.1794 89.5149L89.1731 79.0892C67.3718 69.6037 55.1637 67.2 34.2975 67.4308L34.4031 78.6896ZM47.5568 33.6375V50.5257H36.9916V33.6375H47.5568ZM66.0459 39.2669V56.1551H55.4807V39.2669H66.0459ZM84.535 44.8963V61.7845H73.9698V44.8963H84.535Z" fill="url(#paint3_linear_203_2098)"/>
<defs>
<linearGradient id="paint0_linear_203_2098" x1="102.892" y1="11.2125" x2="102.892" y2="179.4" gradientUnits="userSpaceOnUse">
<stop stop-color="#D7A5A5"/>
<stop offset="1" stop-color="white" stop-opacity="0.91"/>
</linearGradient>
<linearGradient id="paint1_linear_203_2098" x1="144.049" y1="0" x2="144.049" y2="168.188" gradientUnits="userSpaceOnUse">
<stop stop-color="#D7A5A5"/>
<stop offset="1" stop-color="white" stop-opacity="0.91"/>
</linearGradient>
<linearGradient id="paint2_linear_203_2098" x1="92.6026" y1="0" x2="92.6026" y2="168.188" gradientUnits="userSpaceOnUse">
<stop stop-color="#D7A5A5"/>
<stop offset="1" stop-color="white" stop-opacity="0.91"/>
</linearGradient>
<linearGradient id="paint3_linear_203_2098" x1="61.7353" y1="33.6375" x2="61.7353" y2="134.55" gradientUnits="userSpaceOnUse">
<stop stop-color="#D7A5A5"/>
<stop offset="1" stop-color="white" stop-opacity="0.91"/>
</linearGradient>
</defs>
</svg>
